<?xml version="1.0" standalone="no"?>
<!DOCTYPE svg PUBLIC "-//W3C//DTD SVG 20010904//EN"
 "http://www.w3.org/TR/2001/REC-SVG-20010904/DTD/svg10.dtd">
<svg version="1.0" xmlns="http://www.w3.org/2000/svg"
 width="501.000000pt" height="125.000000pt" viewBox="0 0 501.000000 125.000000"
 preserveAspectRatio="xMidYMid meet">

<g transform="translate(0.000000,125.000000) scale(0.100000,-0.100000)"
fill="#000000" stroke="none">
<path d="M597 1109 c-78 -18 -132 -63 -162 -136 -20 -48 -35 -178 -35 -310 0
-106 -1 -113 -20 -113 -18 0 -20 -7 -20 -60 l0 -60 45 0 c41 0 45 -2 45 -24 0
-19 -7 -26 -30 -31 -16 -4 -30 -11 -30 -16 0 -5 14 -9 30 -9 l30 0 0 -70 0
-70 253 2 252 3 3 133 3 132 -26 0 c-18 0 -25 5 -25 19 0 17 8 20 48 23 l47 3
3 68 c3 59 5 67 22 67 11 0 20 7 20 15 0 13 -26 15 -175 15 l-175 0 0 -60 0
-60 55 0 55 0 0 -110 0 -110 -45 0 c-41 0 -45 2 -45 25 0 14 -5 25 -11 25 -7
0 -9 -10 -7 -25 4 -19 1 -25 -12 -25 -11 0 -16 8 -16 22 1 31 -26 29 -35 -2
-5 -16 -7 -2 -8 43 -1 60 -3 67 -21 67 -19 0 -20 7 -20 178 0 97 5 194 11 216
16 59 49 86 104 86 81 0 125 -39 125 -111 l0 -31 53 7 c105 13 107 13 107 49
0 108 -65 202 -160 230 -57 17 -171 20 -233 5z m68 -728 c3 -5 1 -12 -5 -16
-5 -3 -10 1 -10 9 0 18 6 21 15 7z"/>
<path d="M1354 895 l-25 -25 3 -225 c3 -199 5 -226 21 -242 14 -15 39 -19 132
-22 l115 -3 0 156 0 156 -50 0 -49 0 -3 -102 c-3 -102 -3 -103 -28 -103 l-25
0 -3 163 -2 162 60 0 c60 0 60 0 60 29 0 16 -4 41 -10 55 -9 25 -13 26 -90 26
-73 0 -83 -2 -106 -25z"/>
<path d="M1727 913 c-5 -9 -97 -504 -97 -523 0 -7 19 -10 53 -8 51 3 52 4 55
36 3 30 6 32 42 32 36 0 39 -2 42 -32 3 -32 4 -33 56 -36 38 -2 52 1 52 10 0
7 -20 126 -45 263 -25 138 -45 253 -45 258 0 4 -24 7 -54 7 -30 0 -57 -3 -59
-7z m68 -305 c6 -65 6 -68 -15 -68 -20 0 -21 3 -14 63 11 101 18 102 29 5z"/>
<path d="M1960 650 l0 -271 53 3 52 3 5 110 5 110 24 -82 c13 -46 26 -83 30
-83 4 0 21 42 38 93 l31 92 1 -122 1 -123 50 0 50 0 0 270 0 271 -57 -3 -57
-3 -27 -105 c-14 -58 -29 -98 -33 -90 -3 8 -16 56 -29 105 l-24 90 -56 3 -57
3 0 -271z"/>
<path d="M2345 907 c-3 -7 -4 -127 -3 -267 l3 -255 94 -3 c52 -1 98 1 103 6 4
4 11 29 14 55 l7 47 -57 0 -56 0 0 55 0 55 45 0 45 0 0 45 0 45 -45 0 -45 0 0
60 0 59 58 3 c62 3 59 0 47 71 l-6 37 -100 0 c-71 0 -101 -4 -104 -13z"/>
<path d="M2775 908 c-4 -13 -95 -511 -95 -523 0 -3 24 -5 52 -3 50 3 53 5 58
33 4 26 10 30 43 33 31 3 37 0 37 -17 0 -42 10 -51 61 -51 40 0 49 3 49 18 0
9 -20 129 -45 266 -25 137 -45 250 -45 252 0 2 -25 4 -55 4 -36 0 -57 -5 -60
-12z m74 -340 c1 -22 -4 -28 -20 -28 -18 0 -20 4 -14 48 3 26 9 61 13 77 6 27
7 26 13 -20 4 -27 8 -62 8 -77z"/>
<path d="M3015 907 c-3 -7 -4 -127 -3 -267 l3 -255 111 0 c164 0 154 -17 154
271 0 282 11 264 -153 264 -78 0 -109 -4 -112 -13z m165 -257 l0 -170 -30 0
-30 0 0 170 0 170 30 0 30 0 0 -170z"/>
<path d="M3325 907 c-3 -7 -4 -127 -3 -267 l3 -255 91 -3 c110 -3 165 12 175
48 4 14 7 119 8 233 l1 208 -25 24 c-23 24 -31 25 -135 25 -80 0 -112 -3 -115
-13z m165 -257 l0 -170 -30 0 -30 0 0 170 0 170 30 0 30 0 0 -170z"/>
<path d="M3667 900 l-27 -21 0 -228 c0 -217 1 -229 21 -247 37 -33 199 -32
234 2 22 22 23 460 1 490 -12 16 -29 20 -108 22 -83 3 -96 1 -121 -18z m133
-250 l0 -170 -25 0 -25 0 0 170 0 170 25 0 25 0 0 -170z"/>
<path d="M3960 649 l0 -270 48 3 47 3 5 90 5 90 13 -56 c31 -137 26 -129 87
-129 l55 0 0 270 0 270 -55 0 -55 0 -1 -97 -1 -98 -25 98 -25 97 -49 0 -49 0
0 -271z"/>
<path d="M4265 907 c-3 -7 -4 -127 -3 -267 l3 -255 53 -3 52 -3 0 270 0 271
-50 0 c-32 0 -52 -5 -55 -13z"/>
<path d="M4435 895 c-24 -23 -25 -31 -25 -135 0 -141 4 -150 75 -150 l55 0 0
-60 0 -60 -61 0 -61 0 6 -37 c14 -80 9 -76 102 -71 121 6 124 10 124 164 0
116 -1 124 -22 138 -12 9 -42 16 -65 16 l-43 0 0 55 0 55 59 0 c33 0 62 4 65
8 2 4 0 29 -6 55 l-10 47 -84 0 c-77 0 -87 -2 -109 -25z"/>
<path d="M602 510 c0 -14 2 -19 5 -12 2 6 2 18 0 25 -3 6 -5 1 -5 -13z"/>
<path d="M977 473 c-13 -12 -7 -43 8 -43 9 0 14 8 12 20 -4 24 -11 32 -20 23z"/>
<path d="M976 403 c-12 -12 -6 -43 9 -43 8 0 15 9 15 19 0 21 -13 34 -24 24z"/>
<path d="M970 320 c0 -11 7 -20 15 -20 17 0 18 2 9 24 -9 23 -24 20 -24 -4z"/>
<path d="M970 250 c0 -11 7 -20 15 -20 17 0 18 2 9 24 -9 23 -24 20 -24 -4z"/>
<path d="M580 190 c0 -6 38 -10 95 -10 57 0 95 4 95 10 0 6 -38 10 -95 10 -57
0 -95 -4 -95 -10z"/>
</g>
</svg>
